<svg width="34" height="28" viewBox="0 0 34 28" fill="none" xmlns="http://www.w3.org/2000/svg">
<path d="M9.53271 26.5327C9.53271 27.1682 9.05607 27.8037 8.26168 27.8037C7.62617 27.8037 7.14953 27.3271 7.14953 26.5327L5.8785 19.0654C4.28972 18.7477 3.01869 17.9533 1.90654 17C0.794393 15.5701 0 13.8224 0 11.757C0 9.69159 0.794393 7.94393 2.2243 6.51402C3.49533 5.24299 5.40187 4.28972 7.46729 4.28972C7.94392 4.28972 8.26168 4.28972 8.73832 4.4486H9.05607C9.69159 3.17757 10.8037 2.2243 11.9159 1.42991C13.3458 0.476635 14.9346 0 16.8411 0C18.7477 0 20.4953 0.635514 21.9252 1.58879C23.1963 2.38318 24.1495 3.33645 24.785 4.60748H25.1028C25.5794 4.4486 26.0561 4.4486 26.5327 4.4486C28.5981 4.4486 30.5047 5.24299 31.7757 6.6729C33.0467 7.94393 34 9.85047 34 11.9159C34 13.8224 33.2056 15.729 31.9346 17C30.9813 18.1122 29.5514 18.7477 28.1215 19.0654L26.6916 26.5327C26.6916 27.1682 26.215 27.8037 25.4206 27.8037C24.785 27.8037 24.1495 27.1682 24.1495 26.5327L25.5794 16.8411H26.6916C27.9626 16.8411 29.2336 16.2056 30.028 15.2523C30.8224 14.2991 31.4579 13.1869 31.4579 11.757C31.4579 10.3271 30.8224 9.05608 30.028 8.26168C29.0748 7.30841 27.8037 6.83178 26.5327 6.83178C26.215 6.83178 25.8972 6.83178 25.5794 6.99065C25.2617 6.99065 24.9439 7.14953 24.6262 7.30841L23.514 7.78505L23.0374 6.6729C22.5607 5.40187 21.6075 4.4486 20.4953 3.65421C19.3832 3.01869 18.1122 2.54206 16.8411 2.54206C15.4112 2.54206 14.1402 2.85981 13.1869 3.65421C12.0748 4.13084 11.1215 5.24299 10.6449 6.35514L10.1682 7.46729L9.05607 6.99065C8.73832 6.99065 8.57944 6.83178 8.26168 6.83178C7.94392 6.83178 7.62617 6.83178 7.46729 6.83178C6.03738 6.6729 4.76636 7.30841 3.81308 8.26168C3.01869 9.05608 2.38318 10.3271 2.38318 11.757C2.38318 13.028 2.85981 14.2991 3.81308 15.2523C4.60748 16.2056 5.8785 16.6822 7.14953 16.8411H8.26168L9.53271 26.5327Z" fill="white"/>
<path d="M23.3554 16.5234C23.5142 14.2991 22.2432 12.5514 20.6544 12.3925C19.0656 12.3925 17.6357 13.9813 17.6357 16.0467C17.4769 17.7944 18.4301 19.3832 19.5423 19.8598L19.0656 25.7383C19.0656 26.2149 19.3834 26.5327 19.86 26.5327H20.1778C20.6544 26.5327 20.9722 26.2149 20.9722 25.7383L21.1311 19.8598C22.4021 19.542 23.3554 18.1121 23.3554 16.5234Z" fill="white"/>
<path d="M14.1403 12.3925C13.8225 12.3925 13.6636 12.7103 13.6636 12.8691L13.9814 16.2056L13.187 16.3645L12.8692 12.8691C12.7104 12.7103 12.5515 12.3925 12.2337 12.5514C12.0748 12.5514 11.916 12.7103 11.916 13.028L12.2337 16.3645L11.4393 16.5234L10.9627 13.028C10.9627 12.8691 10.8038 12.7103 10.4861 12.7103C10.3272 12.7103 10.0094 12.8691 10.1683 13.1869L10.4861 16.5234L10.6449 18.1121C10.8038 19.0654 11.4393 19.8598 12.2337 20.0187L12.7104 26.0561C12.7104 26.5327 13.187 26.8505 13.5048 26.6916H13.8225C14.2991 26.6916 14.6169 26.2149 14.458 25.8972L13.6636 20.0187C14.458 19.542 14.9347 18.7477 14.9347 17.7944L14.7758 16.2056L14.6169 12.7103C14.6169 12.5514 14.2991 12.2336 14.1403 12.3925Z" fill="white"/>
</svg>
