<svg width="137" height="29" viewBox="0 0 137 29" fill="none" xmlns="http://www.w3.org/2000/svg">
<path d="M46.84 15.4222C46.84 19.6622 48.62 21.7822 52.18 21.7822C52.82 21.7822 53.42 21.7222 53.98 21.6022C54.56 21.4822 55.26 21.2822 56.08 21.0022C56.74 22.4422 57.18 23.9222 57.4 25.4422C56.82 25.6622 56.28 25.8422 55.78 25.9822C55.28 26.1222 54.8 26.2222 54.34 26.2822C53.88 26.3622 53.42 26.4122 52.96 26.4322C52.52 26.4722 52.06 26.4922 51.58 26.4922C49.88 26.4922 48.38 26.2222 47.08 25.6822C45.8 25.1222 44.72 24.3522 43.84 23.3722C42.98 22.3922 42.33 21.2222 41.89 19.8622C41.45 18.5022 41.23 17.0222 41.23 15.4222C41.23 13.8222 41.46 12.3422 41.92 10.9822C42.38 9.60218 43.04 8.41218 43.9 7.41218C44.78 6.41218 45.86 5.63218 47.14 5.07218C48.42 4.51218 49.87 4.23218 51.49 4.23218C52.45 4.23218 53.36 4.30218 54.22 4.44218C55.08 4.58218 56.04 4.86218 57.1 5.28218C57.06 6.10218 56.91 6.90218 56.65 7.68218C56.39 8.44218 56.12 9.11218 55.84 9.69218C55.44 9.55218 55.07 9.43218 54.73 9.33218C54.41 9.23218 54.1 9.15218 53.8 9.09218C53.5 9.03218 53.2 8.99218 52.9 8.97218C52.6 8.93218 52.28 8.91218 51.94 8.91218C50.32 8.91218 49.06 9.46218 48.16 10.5622C47.28 11.6422 46.84 13.2622 46.84 15.4222Z" fill="#F87A7A"/>
<path d="M69.4712 20.4322H65.0312V26.1322C64.5112 26.2122 64.0412 26.2722 63.6212 26.3122C63.2012 26.3522 62.8212 26.3722 62.4812 26.3722C62.1412 26.3722 61.7612 26.3522 61.3412 26.3122C60.9212 26.2722 60.4612 26.2122 59.9612 26.1322V10.6522C60.4012 10.5522 60.8312 10.4822 61.2512 10.4422C61.6912 10.4022 62.1112 10.3822 62.5112 10.3822C62.8912 10.3822 63.3012 10.4022 63.7412 10.4422C64.1812 10.4822 64.6112 10.5522 65.0312 10.6522V15.9322H69.4712V10.6522C69.9112 10.5522 70.3412 10.4822 70.7612 10.4422C71.2012 10.4022 71.6212 10.3822 72.0212 10.3822C72.4012 10.3822 72.8112 10.4022 73.2512 10.4422C73.6912 10.4822 74.1212 10.5522 74.5412 10.6522V26.1322C74.0212 26.2122 73.5512 26.2722 73.1312 26.3122C72.7112 26.3522 72.3312 26.3722 71.9912 26.3722C71.6512 26.3722 71.2712 26.3522 70.8512 26.3122C70.4312 26.2722 69.9712 26.2122 69.4712 26.1322V20.4322Z" fill="#F87A7A"/>
<path d="M82.2409 20.0122C82.4609 20.8322 82.8409 21.4122 83.3809 21.7522C83.9409 22.0922 84.6709 22.2622 85.5709 22.2622C86.1509 22.2622 86.8009 22.1922 87.5209 22.0522C88.2409 21.9122 88.9509 21.7022 89.6509 21.4222C89.9309 21.9422 90.1709 22.5622 90.3709 23.2822C90.5909 24.0022 90.7109 24.7522 90.7309 25.5322C88.9509 26.1922 87.1309 26.5222 85.2709 26.5222C83.8309 26.5222 82.5909 26.3222 81.5509 25.9222C80.5309 25.5222 79.6909 24.9722 79.0309 24.2722C78.3909 23.5522 77.9109 22.7022 77.5909 21.7222C77.2909 20.7422 77.1409 19.6722 77.1409 18.5122C77.1409 17.3722 77.3009 16.3022 77.6209 15.3022C77.9409 14.3022 78.4209 13.4322 79.0609 12.6922C79.7009 11.9522 80.5009 11.3722 81.4609 10.9522C82.4209 10.5122 83.5409 10.2922 84.8209 10.2922C85.8809 10.2922 86.8209 10.4722 87.6409 10.8322C88.4809 11.1922 89.1909 11.6922 89.7709 12.3322C90.3509 12.9522 90.7909 13.7122 91.0909 14.6122C91.4109 15.4922 91.5709 16.4522 91.5709 17.4922C91.5709 18.0322 91.5409 18.5222 91.4809 18.9622C91.4409 19.3822 91.4009 19.7322 91.3609 20.0122H82.2409ZM84.6409 14.1022C84.0009 14.1022 83.4509 14.3022 82.9909 14.7022C82.5309 15.1022 82.2609 15.7222 82.1809 16.5622H86.9809C86.9409 15.8622 86.7209 15.2822 86.3209 14.8222C85.9409 14.3422 85.3809 14.1022 84.6409 14.1022Z" fill="#F87A7A"/>
<path d="M99.1035 21.5122V26.1022C98.6835 26.2022 98.2535 26.2622 97.8135 26.2822C97.3735 26.3222 96.9635 26.3422 96.5835 26.3422C96.1835 26.3422 95.7635 26.3222 95.3235 26.2822C94.9035 26.2622 94.4735 26.2022 94.0335 26.1022V10.6522H105.493C105.593 11.0522 105.653 11.4222 105.673 11.7622C105.713 12.1022 105.733 12.4322 105.733 12.7522C105.733 13.0722 105.713 13.4122 105.673 13.7722C105.653 14.1122 105.593 14.4822 105.493 14.8822H99.1035V17.2822H104.264C104.364 17.6822 104.424 18.0522 104.444 18.3922C104.484 18.7322 104.503 19.0622 104.503 19.3822C104.503 19.7022 104.484 20.0422 104.444 20.4022C104.424 20.7422 104.364 21.1122 104.264 21.5122H99.1035Z" fill="#F87A7A"/>
<path d="M112.932 21.5122V26.1022C112.512 26.2022 112.082 26.2622 111.642 26.2822C111.202 26.3222 110.792 26.3422 110.412 26.3422C110.012 26.3422 109.592 26.3222 109.152 26.2822C108.732 26.2622 108.302 26.2022 107.862 26.1022V10.6522H119.322C119.422 11.0522 119.482 11.4222 119.502 11.7622C119.542 12.1022 119.562 12.4322 119.562 12.7522C119.562 13.0722 119.542 13.4122 119.502 13.7722C119.482 14.1122 119.422 14.4822 119.322 14.8822H112.932V17.2822H118.092C118.192 17.6822 118.252 18.0522 118.272 18.3922C118.312 18.7322 118.332 19.0622 118.332 19.3822C118.332 19.7022 118.312 20.0422 118.272 20.4022C118.252 20.7422 118.192 21.1122 118.092 21.5122H112.932Z" fill="#F87A7A"/>
<path d="M131.53 10.6522C131.69 10.6122 131.99 10.5722 132.43 10.5322C132.89 10.4922 133.38 10.4722 133.9 10.4722C134.56 10.4722 135.15 10.4922 135.67 10.5322C136.19 10.5722 136.56 10.6122 136.78 10.6522L130.99 20.7022V26.1322C130.47 26.2122 130 26.2722 129.58 26.3122C129.16 26.3522 128.78 26.3722 128.44 26.3722C128.1 26.3722 127.72 26.3522 127.3 26.3122C126.88 26.2722 126.42 26.2122 125.92 26.1322V20.7022L120.16 10.6522C120.38 10.6122 120.76 10.5722 121.3 10.5322C121.86 10.4922 122.47 10.4722 123.13 10.4722C123.65 10.4722 124.16 10.4922 124.66 10.5322C125.16 10.5722 125.49 10.6122 125.65 10.6522L128.59 16.5622L131.53 10.6522Z" fill="#F87A7A"/>
<path d="M9.53271 27.0991C9.53271 27.7346 9.05607 28.3701 8.26168 28.3701C7.62617 28.3701 7.14953 27.8935 7.14953 27.0991L5.8785 19.6318C4.28972 19.314 3.01869 18.5196 1.90654 17.5664C0.794393 16.1365 0 14.3888 0 12.3234C0 10.258 0.794393 8.5103 2.2243 7.08039C3.49533 5.80937 5.40187 4.8561 7.46729 4.8561C7.94392 4.8561 8.26168 4.8561 8.73832 5.01497H9.05607C9.69159 3.74395 10.8037 2.79067 11.9159 1.99628C13.3458 1.04301 14.9346 0.566376 16.8411 0.566376C18.7477 0.566376 20.4953 1.20189 21.9252 2.15516C23.1963 2.94955 24.1495 3.90282 24.785 5.17385H25.1028C25.5794 5.01497 26.0561 5.01497 26.5327 5.01497C28.5981 5.01497 30.5047 5.80937 31.7757 7.23927C33.0467 8.5103 34 10.4168 34 12.4823C34 14.3888 33.2056 16.2953 31.9346 17.5664C30.9813 18.6785 29.5514 19.314 28.1215 19.6318L26.6916 27.0991C26.6916 27.7346 26.215 28.3701 25.4206 28.3701C24.785 28.3701 24.1495 27.7346 24.1495 27.0991L25.5794 17.4075H26.6916C27.9626 17.4075 29.2336 16.772 30.028 15.8187C30.8224 14.8654 31.4579 13.7533 31.4579 12.3234C31.4579 10.8935 30.8224 9.62245 30.028 8.82806C29.0748 7.87479 27.8037 7.39815 26.5327 7.39815C26.215 7.39815 25.8972 7.39815 25.5794 7.55703C25.2617 7.55703 24.9439 7.71591 24.6262 7.87479L23.514 8.35142L23.0374 7.23927C22.5607 5.96825 21.6075 5.01497 20.4953 4.22058C19.3832 3.58507 18.1122 3.10843 16.8411 3.10843C15.4112 3.10843 14.1402 3.42619 13.1869 4.22058C12.0748 4.69722 11.1215 5.80937 10.6449 6.92152L10.1682 8.03367L9.05607 7.55703C8.73832 7.55703 8.57944 7.39815 8.26168 7.39815C7.94392 7.39815 7.62617 7.39815 7.46729 7.39815C6.03738 7.23927 4.76636 7.87479 3.81308 8.82806C3.01869 9.62245 2.38318 10.8935 2.38318 12.3234C2.38318 13.5944 2.85981 14.8654 3.81308 15.8187C4.60748 16.772 5.8785 17.2486 7.14953 17.4075H8.26168L9.53271 27.0991Z" fill="#F87A7A"/>
<path d="M23.3554 17.0897C23.5142 14.8654 22.2432 13.1178 20.6544 12.9589C19.0656 12.9589 17.6357 14.5477 17.6357 16.6131C17.4769 18.3608 18.4301 19.9495 19.5423 20.4262L19.0656 26.3047C19.0656 26.7813 19.3834 27.0991 19.86 27.0991H20.1778C20.6544 27.0991 20.9722 26.7813 20.9722 26.3047L21.1311 20.4262C22.4021 20.1084 23.3554 18.6785 23.3554 17.0897Z" fill="#F87A7A"/>
<path d="M14.1403 12.9589C13.8225 12.9589 13.6636 13.2766 13.6636 13.4355L13.9814 16.772L13.187 16.9309L12.8692 13.4355C12.7104 13.2766 12.5515 12.9589 12.2337 13.1178C12.0748 13.1178 11.916 13.2766 11.916 13.5944L12.2337 16.9309L11.4393 17.0897L10.9627 13.5944C10.9627 13.4355 10.8038 13.2766 10.4861 13.2766C10.3272 13.2766 10.0094 13.4355 10.1683 13.7533L10.4861 17.0897L10.6449 18.6785C10.8038 19.6318 11.4393 20.4262 12.2337 20.5851L12.7104 26.6224C12.7104 27.0991 13.187 27.4168 13.5048 27.258H13.8225C14.2991 27.258 14.6169 26.7813 14.458 26.4636L13.6636 20.5851C14.458 20.1084 14.9347 19.314 14.9347 18.3608L14.7758 16.772L14.6169 13.2766C14.6169 13.1178 14.2991 12.8 14.1403 12.9589Z" fill="#F87A7A"/>
</svg>
